<svg xmlns="http://www.w3.org/2000/svg" width="110" height="39.279" viewBox="0 0 110 39.279">
  <g id="_5_3_logo" data-name="5_3_logo" transform="translate(-1124 -836.408)">
    <g id="HTML5" transform="translate(1124 836.408)">
      <path id="パス_8" data-name="パス 8" d="M6.807,37.346,3.655,2h34.63L35.129,37.341l-14.18,3.931Z" transform="translate(-3.655 -2)" fill="#e44f26"/>
      <path id="パス_9" data-name="パス 9" d="M16,37.438l11.459-3.177,2.7-30.2H16Z" transform="translate(1.315 -1.17)" fill="#f1662a"/>
      <path id="パス_10" data-name="パス 10" d="M19.12,15.926H13.383l-.4-4.439H19.12V7.151H8.25l.1,1.164L9.418,20.261h9.7Z" transform="translate(-1.805 0.074)" fill="#ebebeb"/>
      <path id="パス_11" data-name="パス 11" d="M18.729,22.8l-.02.006-4.828-1.3-.309-3.457H9.221l.607,6.805,8.881,2.466.02-.006Z" transform="translate(-1.414 4.459)" fill="#ebebeb"/>
      <path id="パス_12" data-name="パス 12" d="M15.989,13.407v4.335h5.338l-.5,5.623-4.836,1.3V29.18l8.888-2.464.065-.732L25.96,14.571l.107-1.164H15.989Z" transform="translate(1.31 2.592)" fill="#fff"/>
      <path id="パス_13" data-name="パス 13" d="M15.989,7.151v4.335H26.461l.087-.973.2-2.2.1-1.164Z" transform="translate(1.31 0.074)" fill="#fff"/>
    </g>
    <g id="CSS3" transform="translate(1199.398 836.443)">
      <path id="パス_1" data-name="パス 1" d="M6.8,37.321,3.656,2h34.6L35.106,37.315l-14.17,3.929Z" transform="translate(-3.656 -2)" fill="#1572b6"/>
      <path id="パス_2" data-name="パス 2" d="M16,37.414l11.451-3.175L30.145,4.061H16Z" transform="translate(1.301 -1.172)" fill="#33a9dc"/>
      <path id="パス_3" data-name="パス 3" d="M16,15.7h5.732l.4-4.436H16V6.935H26.862l-.1,1.162L25.695,20.035H16Z" transform="translate(1.301 -0.018)" fill="#fff"/>
      <path id="パス_4" data-name="パス 4" d="M18.741,22.58l-.02.006-4.824-1.3-.308-3.455H9.24l.607,6.8,8.873,2.464.021-.006Z" transform="translate(-1.414 4.356)" fill="#ebebeb"/>
      <path id="パス_5" data-name="パス 5" d="M21.361,16.151l-.521,5.8-4.831,1.3v4.507l8.88-2.461.066-.732.753-8.419Z" transform="translate(1.304 3.683)" fill="#fff"/>
      <path id="パス_6" data-name="パス 6" d="M19.12,6.935v4.332H8.656l-.087-.974-.2-2.2-.1-1.162Z" transform="translate(-1.804 -0.018)" fill="#ebebeb"/>
      <path id="パス_7" data-name="パス 7" d="M17.476,13.191v4.332H12.712l-.087-.974-.2-2.2-.1-1.162Z" transform="translate(-0.175 2.494)" fill="#ebebeb"/>
    </g>
  </g>
</svg>
