<svg id="ai_logo" xmlns="http://www.w3.org/2000/svg" width="39.8" height="38.805" viewBox="0 0 39.8 38.805">
  <path id="パス_16" data-name="パス 16" d="M2.667,3.467H39.151V38.956H2.667Z" transform="translate(-1.008 -1.808)" fill="#261300"/>
  <path id="パス_17" data-name="パス 17" d="M0,.8V39.6H39.8V.8ZM1.659,2.459H38.142V37.947H1.659ZM13.814,22.773,12.5,27.748c-.033.132-.083.166-.249.166H9.817c-.166,0-.2-.05-.166-.249L14.36,11.181A5.4,5.4,0,0,0,14.526,9.8c0-.116.05-.166.132-.166h3.482c.116,0,.166.033.2.166L23.614,27.7c.033.132,0,.216-.132.216H20.728c-.132,0-.216-.033-.249-.149L19.1,22.773Zm4.61-2.686L16.45,12.292h-.033c-.348,1.94-1.227,5.224-1.923,7.794Zm7.462-9.221a1.691,1.691,0,1,1,3.383,0,1.585,1.585,0,0,1-1.724,1.691A1.559,1.559,0,0,1,25.886,10.866Zm.2,3.764c0-.132.05-.2.2-.2h2.6c.132,0,.2.05.2.2V27.714c0,.132-.033.2-.2.2h-2.57c-.166,0-.216-.083-.216-.216V14.63Z" transform="translate(0 -0.8)" fill="#ff7c00"/>
</svg>
