<svg xmlns="http://www.w3.org/2000/svg" width="39" height="39" viewBox="0 0 39 39">
  <g id="pr_logo" transform="translate(-1083.247 -1127.495)">
    <rect id="長方形_18" data-name="長方形 18" width="39" height="39" transform="translate(1083.247 1127.495)" fill="#d573f7"/>
    <rect id="長方形_19" data-name="長方形 19" width="33" height="32" transform="translate(1086.247 1131.495)" fill="#252653"/>
    <path id="パス_38" data-name="パス 38" d="M4638,5210.122v20.218l4.023.006v-6.376a19.517,19.517,0,0,0,3.95-.26,6.608,6.608,0,0,0,3.524-2.016,6.358,6.358,0,0,0,1.762-4.617c0-4.95-3.228-7.3-8.292-7.126Zm4.023,10.65.006-7.557c1.682-.034,3.148-.014,4.112.842.756.67,1.035,1.4,1.007,3.105C4647.093,5220.465,4644.881,5220.772,4642.023,5220.772Z" transform="translate(-3546.273 -4073.165)" fill="#d573f7" fill-rule="evenodd"/>
    <path id="パス_39" data-name="パス 39" d="M9930.852,6907.543l.009,11.543,4.018.02.011-9.923-.011-.439a5.411,5.411,0,0,1,4.392-1.646c.159.006.211.006.211-.2v-2.917c.012-.516-.1-.653-.693-.633a3.917,3.917,0,0,0-3.139,1.108c-.234.2-.927,1.03-.927,1.03a2.6,2.6,0,0,0-.5-1.9c-.193-.14-.243-.129-.521-.129h-.531l-2.227-.031c-.245.04-.26.1-.254.38C9930.712,6905.073,9930.852,6905.961,9930.852,6907.543Z" transform="translate(-8825.799 -5762.188)" fill="#d573f7" fill-rule="evenodd"/>
  </g>
</svg>
