<svg id="ps_logo" xmlns="http://www.w3.org/2000/svg" width="39.884" height="38.887" viewBox="0 0 39.884 38.887">
  <path id="パス_14" data-name="パス 14" d="M3.167,3.517H39.726V39.079H3.167Z" transform="translate(-1.505 -1.855)" fill="#0c0824"/>
  <path id="パス_15" data-name="パス 15" d="M3.662,4.012H40.222V39.574H3.662ZM2,41.237H41.884V2.35H2ZM28.889,18.3c-1.313,0-1.762.665-1.762,1.214,0,.6.3,1.014,2.061,1.927,2.61,1.263,3.419,2.476,3.419,4.255,0,2.659-2.027,4.088-4.769,4.088a7.23,7.23,0,0,1-3.407-.712c-.117-.05-.132-.132-.132-.266V26.363c0-.167.083-.217.2-.132a6.168,6.168,0,0,0,3.34.98c1.313,0,1.862-.548,1.862-1.3,0-.6-.382-1.13-2.061-1.994-2.36-1.13-3.34-2.279-3.34-4.188,0-2.144,1.678-3.921,4.587-3.921a7.642,7.642,0,0,1,2.974.466.368.368,0,0,1,.167.332v2.279c0,.132-.083.217-.249.167a5.614,5.614,0,0,0-2.892-.748ZM14.6,20.281c.382.033.681.033,1.346.033,1.944,0,3.772-.681,3.772-3.323,0-2.111-1.313-3.174-3.523-3.174-.665,0-1.3.033-1.6.05Zm-2.959-8.831c0-.117.232-.2.366-.2,1.064-.05,2.642-.083,4.288-.083,4.6,0,6.4,2.525,6.4,5.75,0,4.221-3.058,6.032-6.813,6.032-.631,0-.848-.033-1.3-.033V29.3c0,.132-.05.2-.2.2H11.838c-.132,0-.2-.05-.2-.2V11.456Z" transform="translate(-2 -2.35)" fill="#31c5f0"/>
</svg>
